<?xml version="1.0"?>
<svg xmlns="http://www.w3.org/2000/svg" id="Outline" viewBox="0 0 512 512" width="512" height="512"><path d="M464,16H224a8,8,0,0,0-8,8V80H48a8,8,0,0,0-8,8V488a8,8,0,0,0,8,8H288a8,8,0,0,0,8-8V432H464a8,8,0,0,0,8-8V24A8,8,0,0,0,464,16ZM232,43.314,268.686,80H232ZM86.37,96,56,130.708V96ZM280,480H56V155.006L107.63,96H280Zm176-64H296V384h72a8,8,0,0,0,0-16H296V352H400a8,8,0,0,0,0-16H296V272H424a8,8,0,0,0,0-16h-8.581A56.112,56.112,0,0,0,368,208.581V200a8,8,0,0,0-16,0v8.581A56.112,56.112,0,0,0,304.581,256H296V160h72a8,8,0,0,0,0-16H296V128H400a8,8,0,0,0,0-16H296V88a7.971,7.971,0,0,0-2.343-5.656h0L243.314,32H456ZM360,224A40.067,40.067,0,0,1,399.2,256h-78.39A40.067,40.067,0,0,1,360,224Z"/><path d="M432,368H400a8,8,0,0,0,0,16h32a8,8,0,0,0,0-16Z"/><path d="M432,304H368a8,8,0,0,0,0,16h64a8,8,0,0,0,0-16Z"/><circle cx="432" cy="344" r="8"/><path d="M336,304H320a8,8,0,0,0,0,16h16a8,8,0,0,0,0-16Z"/><path d="M248,168H232a8,8,0,0,0,0,16h16a8,8,0,0,0,0-16Z"/><path d="M244.422,223.155a8,8,0,1,0,7.156-14.31l-16-8a8,8,0,1,0-7.156,14.31Z"/><path d="M120,288H88a8,8,0,0,0-8,8v32a8,8,0,0,0,8,8h32a8,8,0,0,0,8-8V296A8,8,0,0,0,120,288Zm-8,32H96V304h16Z"/><path d="M120,352H88a8,8,0,0,0-8,8v32a8,8,0,0,0,8,8h32a8,8,0,0,0,8-8V360A8,8,0,0,0,120,352Zm-8,32H96V368h16Z"/><path d="M248,288H152a8,8,0,0,0,0,16h96a8,8,0,0,0,0-16Z"/><path d="M152,336h16a8,8,0,0,0,0-16H152a8,8,0,0,0,0,16Z"/><path d="M248,352H152a8,8,0,0,0,0,16h96a8,8,0,0,0,0-16Z"/><path d="M152,400h16a8,8,0,0,0,0-16H152a8,8,0,0,0,0,16Z"/><path d="M120,416H88a8,8,0,0,0-8,8v32a8,8,0,0,0,8,8h32a8,8,0,0,0,8-8V424A8,8,0,0,0,120,416Zm-8,32H96V432h16Z"/><path d="M248,416H152a8,8,0,0,0,0,16h96a8,8,0,0,0,0-16Z"/><path d="M168,448H152a8,8,0,0,0,0,16h16a8,8,0,0,0,0-16Z"/><path d="M432,144H400a8,8,0,0,0,0,16h32a8,8,0,0,0,0-16Z"/><path d="M368,96h64a8,8,0,0,0,0-16H368a8,8,0,0,0,0,16Z"/><circle cx="432" cy="120" r="8"/><path d="M320,96h16a8,8,0,0,0,0-16H320a8,8,0,0,0,0,16Z"/><path d="M232.006,152a8,8,0,0,1-3.584-15.157l16-8a8,8,0,1,1,7.156,14.31l-16,8A7.973,7.973,0,0,1,232.006,152Z"/><path d="M204.923,129.694a8,8,0,0,0-6.863-1.455L135.015,144H104a24.027,24.027,0,0,0-24,24v16a24.039,24.039,0,0,0,16,22.624V232a24,24,0,0,0,48,0V210.246l54.06,13.515A8,8,0,0,0,208,216V136A8,8,0,0,0,204.923,129.694ZM96,168a8.009,8.009,0,0,1,8-8h24v32H104a8.009,8.009,0,0,1-8-8Zm24,72a8.009,8.009,0,0,1-8-8V208h16v24A8.009,8.009,0,0,1,120,240Zm72-34.246-48-12V158.246l48-12Z"/></svg>
