<?xml version="1.0"?>
<svg xmlns="http://www.w3.org/2000/svg" id="Outline" viewBox="0 0 512 512" width="512" height="512"><path d="M472,112h-8a32,32,0,0,0-64,0V376a7.994,7.994,0,0,0,.845,3.578l24,48a8,8,0,0,0,14.31,0l24-48A7.994,7.994,0,0,0,464,376V128h8a8.009,8.009,0,0,1,8,8v88a8,8,0,0,0,16,0V136A24.028,24.028,0,0,0,472,112ZM432,406.111,420.944,384h22.112ZM448,368H416V272h32Zm0-112H416V240h32Zm0-32H416V128h32ZM416,112a16,16,0,0,1,32,0Z"/><path d="M256,256H128a8,8,0,0,0,0,16H256a8,8,0,0,0,0-16Z"/><path d="M256,304H128a8,8,0,0,0,0,16H256a8,8,0,0,0,0-16Z"/><path d="M256,352H128a8,8,0,0,0,0,16H256a8,8,0,0,0,0-16Z"/><path d="M256,400H128a8,8,0,0,0,0,16H256a8,8,0,0,0,0-16Z"/><path d="M264,208h-8.581A56.111,56.111,0,0,0,208,160.581V152a8,8,0,0,0-16,0v8.581A56.111,56.111,0,0,0,144.581,208H136a8,8,0,0,0,0,16H264a8,8,0,0,0,0-16Zm-64-32A40.069,40.069,0,0,1,239.2,208h-78.39A40.069,40.069,0,0,1,200,176Z"/><circle cx="96" cy="408" r="8"/><circle cx="96" cy="360" r="8"/><circle cx="96" cy="312" r="8"/><circle cx="96" cy="264" r="8"/><path d="M288,264a8,8,0,0,0,8,8h8a8,8,0,0,0,0-16h-8A8,8,0,0,0,288,264Z"/><path d="M304,304H288a8,8,0,0,0,0,16h16a8,8,0,0,0,0-16Z"/><path d="M304,352H288a8,8,0,0,0,0,16h16a8,8,0,0,0,0-16Z"/><path d="M304,400H288a8,8,0,0,0,0,16h16a8,8,0,0,0,0-16Z"/><path d="M376,32H243.736a23.98,23.98,0,0,0-22.624-16H178.888a23.98,23.98,0,0,0-22.624,16H24a8,8,0,0,0-8,8V488a8,8,0,0,0,8,8H376a8,8,0,0,0,8-8V40A8,8,0,0,0,376,32ZM336,96V448H64V96h40v24a8,8,0,0,0,8,8H288a8,8,0,0,0,8-8V96Zm-56,16H120V88a8.009,8.009,0,0,1,8-8H272a8.009,8.009,0,0,1,8,8ZM172.783,34.829A7.881,7.881,0,0,1,178.888,32h42.224A8,8,0,0,1,229,41.315L225.222,64H174.777L171,41.315A7.886,7.886,0,0,1,172.783,34.829ZM368,480H32V48H155.889l2.667,16H128a24.039,24.039,0,0,0-22.624,16H56a8,8,0,0,0-8,8V456a8,8,0,0,0,8,8H344a8,8,0,0,0,8-8V88a8,8,0,0,0-8-8H294.624A24.039,24.039,0,0,0,272,64H241.444l2.666-16H368Z"/></svg>
