<?xml version="1.0"?>
<svg xmlns="http://www.w3.org/2000/svg" id="Outline" viewBox="0 0 512 512" width="512" height="512"><circle cx="200" cy="56" r="8"/><path d="M296,48H240a8,8,0,0,0,0,16h56a8,8,0,0,0,0-16Z"/><path d="M248,472a24,24,0,1,0-24-24A24.027,24.027,0,0,0,248,472Zm0-32a8,8,0,1,1-8,8A8.009,8.009,0,0,1,248,440Z"/><path d="M472,112H384V56a40.045,40.045,0,0,0-40-40H152a40.045,40.045,0,0,0-40,40V224H40a24.028,24.028,0,0,0-24,24v96a24.028,24.028,0,0,0,24,24h72v88a40.045,40.045,0,0,0,40,40H344a40.045,40.045,0,0,0,40-40V352h88a24.028,24.028,0,0,0,24-24V136A24.028,24.028,0,0,0,472,112ZM128,56a24.028,24.028,0,0,1,24-24H344a24.028,24.028,0,0,1,24,24V80H128ZM40,352a8.009,8.009,0,0,1-8-8V248a8.009,8.009,0,0,1,8-8H160a8.009,8.009,0,0,1,8,8v16a8,8,0,0,0,3.2,6.4L194.667,288,171.2,305.6A8,8,0,0,0,168,312v32a8.009,8.009,0,0,1-8,8ZM368,456a24.028,24.028,0,0,1-24,24H152a24.028,24.028,0,0,1-24-24V416H368Zm0-56H128V368h32a24.028,24.028,0,0,0,24-24V316l28.8-21.6a8,8,0,0,0,0-12.8L184,260V248a24.028,24.028,0,0,0-24-24H128V96H368v16H264a24.028,24.028,0,0,0-24,24v12l-28.8,21.6a8,8,0,0,0,0,12.8L240,204V328a24.028,24.028,0,0,0,24,24H368Zm112-72a8.009,8.009,0,0,1-8,8H264a8.009,8.009,0,0,1-8-8V200a8,8,0,0,0-3.2-6.4L229.333,176,252.8,158.4A8,8,0,0,0,256,152V136a8.009,8.009,0,0,1,8-8H472a8.009,8.009,0,0,1,8,8Z"/><path d="M144,256H56a8,8,0,0,0,0,16h88a8,8,0,0,0,0-16Z"/><path d="M144,288H56a8,8,0,0,0,0,16h88a8,8,0,0,0,0-16Z"/><path d="M120,320H56a8,8,0,0,0,0,16h64a8,8,0,0,0,0-16Z"/><path d="M464,216a16.019,16.019,0,0,0-16-16h-.581A56.078,56.078,0,0,0,392,152H344a56.078,56.078,0,0,0-55.419,48H288a16.019,16.019,0,0,0-16,16,31.581,31.581,0,0,0,12.794,25.231A24.868,24.868,0,0,0,280,256a24.6,24.6,0,0,0,8,18.316V288a24.028,24.028,0,0,0,24,24H424a24.028,24.028,0,0,0,24-24V274.316A24.6,24.6,0,0,0,456,256a24.868,24.868,0,0,0-4.794-14.769A31.581,31.581,0,0,0,464,216ZM344,168h48A40.069,40.069,0,0,1,431.2,200H304.805A40.069,40.069,0,0,1,344,168Zm88,120a8.009,8.009,0,0,1-8,8H312a8.009,8.009,0,0,1-8-8v-8H432Zm1.454-24H302.546c-3.609,0-6.546-3.589-6.546-8s10.937-8,14.546-8v-.107c.858.064,1.722.107,2.6.107,7.744,0,7.111-2.6,12.953-7.2,5.841,4.6,21.207,7.2,28.952,7.2s7.111-2.6,12.952-7.2c5.841,4.6,21.208,7.2,28.952,7.2s7.111-2.6,12.952-7.2c5.842,4.6,21.209,7.2,28.953,7.2.875,0,1.739-.043,2.6-.107V248c3.609,0-1.454,3.589-1.454,8S437.063,264,433.454,264ZM448,216c0,8.822-7.69,16-17.143,16a17.442,17.442,0,0,1-14.387-7.307,8,8,0,0,0-13.131,0,17.818,17.818,0,0,1-28.774,0,8,8,0,0,0-13.13,0,17.818,17.818,0,0,1-28.774,0,8,8,0,0,0-13.131,0A17.442,17.442,0,0,1,305.143,232C295.69,232,288,224.822,288,216l160-.01Z"/></svg>
