<?xml version="1.0" encoding="UTF-8"?>
<!DOCTYPE svg PUBLIC "-//W3C//DTD SVG 1.1//EN" "http://www.w3.org/Graphics/SVG/1.1/DTD/svg11.dtd">
<!-- Creator: CorelDRAW 2018 (64-Bit Evaluation Version) -->
<svg xmlns="http://www.w3.org/2000/svg" xml:space="preserve" width="422px" height="395px" version="1.1" style="shape-rendering:geometricPrecision; text-rendering:geometricPrecision; image-rendering:optimizeQuality; fill-rule:evenodd; clip-rule:evenodd"
viewBox="0 0 422 395"
 xmlns:xlink="http://www.w3.org/1999/xlink">
 <defs>
  <style type="text/css">
   <![CDATA[
    .fil1 {fill:black}
    .fil0 {fill:#E65050}
   ]]>
  </style>
 </defs>
 <g id="Layer_x0020_1">
  <metadata id="CorelCorpID_0Corel-Layer"/>
  <g id="_2384041354288">
   <path class="fil0" d="M331.92 73.96c0,-28.66 -18.75,-74.13 -69.07,-74.13 -20.68,0 -38.07,9.75 -51.85,29.02 -13.78,-19.27 -31.17,-29.02 -51.85,-29.02 -50.32,0 -69.07,45.47 -69.07,74.13 0,49.41 38.56,80.32 91.24,125.37 7.74,6.61 15.75,13.46 24.28,20.86 1.55,1.35 3.47,2.02 5.4,2.02 1.92,0 3.85,-0.67 5.4,-2.02 8.53,-7.4 16.54,-14.25 24.28,-20.86 55.15,-47.17 91.24,-77.01 91.24,-125.37zm-120.92 129.12c-6.58,-5.68 -12.86,-11.05 -18.97,-16.27 -55.12,-47.13 -85.48,-73.1 -85.48,-112.85 0,-26.97 17.64,-57.65 52.6,-57.65 18.25,0 32.84,10.47 44.62,32.02 1.45,2.65 4.22,4.29 7.23,4.29 3.01,0 5.78,-1.64 7.23,-4.29 11.78,-21.55 26.37,-32.02 44.62,-32.02 34.47,0 52.6,30.23 52.6,57.65 0,39.75 -30.36,65.72 -85.48,112.85 -6.11,5.22 -12.39,10.59 -18.97,16.27l0 0z"/>
   <path class="fil1" d="M59.34 322.78l39.65 19.82 0 44.33c0,4.55 3.69,8.24 8.24,8.24l87.3 0c4.55,0 8.23,-3.69 8.23,-8.24l0 -107.52c0,-25.24 -18.93,-46.16 -43.96,-48.67l-0.68 -0.07c-14.49,-1.46 -40.15,-11.37 -50.29,-21.5l-18.49 -18.49c-6.23,-6.22 -14.5,-9.65 -23.3,-9.65l0 -65.89c0,-18.17 -14.77,-32.95 -32.94,-32.95 -18.16,0 -32.94,14.78 -32.94,32.95l0 111.88c0,40.53 22.89,77.61 59.18,95.76zm-42.71 -207.64c0,-9.08 7.39,-16.47 16.47,-16.47 9.08,0 16.47,7.39 16.47,16.47l0 70.3c-10.04,5.81 -16.47,16.64 -16.47,28.53 0,8.8 3.43,17.07 9.65,23.29l42.18 42.19c3.21,3.22 8.43,3.22 11.65,0 3.21,-3.22 3.21,-8.43 0,-11.65l-42.18 -42.18c-3.11,-3.12 -4.83,-7.25 -4.83,-11.65 0,-6.97 4.41,-13.21 10.98,-15.53 0,0 0.01,0 0.01,0 0,0 0,0 0,0 5.68,-2.02 12.42,-0.82 17.13,3.89l18.5 18.49c19.09,19.09 60.81,26.28 60.9,26.3 16.65,1.67 29.2,15.55 29.2,32.29l0 99.28 -70.83 0 0 -41.18c0,-3.12 -1.76,-5.97 -4.55,-7.36l-44.2 -22.1c-30.89,-15.45 -50.08,-46.5 -50.08,-81.03l0 -111.88z"/>
   <circle class="fil1" cx="378.19" cy="302.92" r="8.24"/>
   <path class="fil1" d="M388.9 82.19c-18.17,0 -32.95,14.78 -32.95,32.95l0 65.89c-8.79,0 -17.06,3.43 -23.29,9.65l-18.5 18.49c-10.13,10.13 -35.79,20.04 -50.35,21.5l-0.54 0.06c-25.11,2.52 -44.03,23.45 -44.03,48.68l0 107.52c0,4.55 3.68,8.24 8.23,8.24l87.3 0c4.55,0 8.24,-3.69 8.24,-8.24l0 -44.33 26.96 -13.47c4.06,-2.04 5.71,-6.98 3.68,-11.05 -2.03,-4.07 -6.98,-5.72 -11.05,-3.69l-31.51 15.76c-2.79,1.39 -4.55,4.24 -4.55,7.36l0 41.18 -70.83 0 0 -99.28c0,-16.74 12.55,-30.62 29.27,-32.29l0.54 -0.06c17.87,-1.79 47.44,-13.4 60.29,-26.24l18.5 -18.49c4.72,-4.73 11.47,-5.9 17.13,-3.9 0,0.01 0,0.01 0,0.01 0,0 0.01,0 0.01,0 6.57,2.32 10.98,8.56 10.98,15.53 0,4.4 -1.72,8.53 -4.83,11.65l-42.18 42.18c-3.21,3.22 -3.21,8.43 0,11.65 3.22,3.22 8.44,3.22 11.65,0l42.18 -42.19c6.22,-6.22 9.65,-14.49 9.65,-23.29 0,-11.89 -6.43,-22.72 -16.47,-28.53l0 -70.3c0,-9.08 7.39,-16.47 16.47,-16.47 9.08,0 16.47,7.39 16.47,16.47l0 111.88c0,15.07 -3.8,30.03 -11,43.26 -2.17,4 -0.69,9 3.31,11.17 3.99,2.17 8.99,0.7 11.17,-3.3 8.5,-15.64 12.99,-33.32 12.99,-51.13l0 -111.88c0,-18.17 -14.78,-32.95 -32.94,-32.95l0 0z"/>
  </g>
 </g>
</svg>
